<?xml version="1.0" encoding="UTF-8" standalone="no"?><svg xmlns="http://www.w3.org/2000/svg" xmlns:xlink="http://www.w3.org/1999/xlink" clip-rule="evenodd" stroke-miterlimit="10" viewBox="0 0 632 61"><desc>SVG generated by Keynote</desc><defs></defs><g transform="matrix(1.00, 0.00, -0.00, -1.00, 0.0, 61.0)"><text xml:space="preserve" font-family="DINCondensed-Bold,DIN Condensed" font-weight="bold" font-size="80.0" fill="#FEFFFE" transform="matrix(1.00, 0.00, -0.00, -1.00, -2.8, 2.0)">H</text><text xml:space="preserve" font-family="DINCondensed-Bold,DIN Condensed" font-weight="bold" font-size="80.0" fill="#FEFFFE" transform="matrix(1.00, 0.00, -0.00, -1.00, 31.3, 2.0)">O</text><text xml:space="preserve" font-family="DINCondensed-Bold,DIN Condensed" font-weight="bold" font-size="80.0" fill="#FEFFFE" transform="matrix(1.00, 0.00, -0.00, -1.00, 64.4, 2.0)">W</text><text xml:space="preserve" font-family="DINCondensed-Bold,DIN Condensed" font-weight="bold" font-size="80.0" fill="#FEFFFE" transform="matrix(1.00, 0.00, -0.00, -1.00, 111.9, 2.0)"> </text><text xml:space="preserve" font-family="DINCondensed-Bold,DIN Condensed" font-weight="bold" font-size="80.0" fill="#FEFFFE" transform="matrix(1.00, 0.00, -0.00, -1.00, 126.8, 2.0)">W</text><text xml:space="preserve" font-family="DINCondensed-Bold,DIN Condensed" font-weight="bold" font-size="80.0" fill="#FEFFFE" transform="matrix(1.00, 0.00, -0.00, -1.00, 173.2, 2.0)">O</text><text xml:space="preserve" font-family="DINCondensed-Bold,DIN Condensed" font-weight="bold" font-size="80.0" fill="#FEFFFE" transform="matrix(1.00, 0.00, -0.00, -1.00, 207.3, 2.0)">R</text><text xml:space="preserve" font-family="DINCondensed-Bold,DIN Condensed" font-weight="bold" font-size="80.0" fill="#FEFFFE" transform="matrix(1.00, 0.00, -0.00, -1.00, 241.4, 2.0)">D</text><text xml:space="preserve" font-family="DINCondensed-Bold,DIN Condensed" font-weight="bold" font-size="80.0" fill="#FEFFFE" transform="matrix(1.00, 0.00, -0.00, -1.00, 275.5, 2.0)">P</text><text xml:space="preserve" font-family="DINCondensed-Bold,DIN Condensed" font-weight="bold" font-size="80.0" fill="#FEFFFE" transform="matrix(1.00, 0.00, -0.00, -1.00, 308.0, 2.0)">R</text><text xml:space="preserve" font-family="DINCondensed-Bold,DIN Condensed" font-weight="bold" font-size="80.0" fill="#FEFFFE" transform="matrix(1.00, 0.00, -0.00, -1.00, 342.1, 2.0)">E</text><text xml:space="preserve" font-family="DINCondensed-Bold,DIN Condensed" font-weight="bold" font-size="80.0" fill="#FEFFFE" transform="matrix(1.00, 0.00, -0.00, -1.00, 371.7, 2.0)">S</text><text xml:space="preserve" font-family="DINCondensed-Bold,DIN Condensed" font-weight="bold" font-size="80.0" fill="#FEFFFE" transform="matrix(1.00, 0.00, -0.00, -1.00, 404.2, 2.0)">S</text><text xml:space="preserve" font-family="DINCondensed-Bold,DIN Condensed" font-weight="bold" font-size="80.0" fill="#FEFFFE" transform="matrix(1.00, 0.00, -0.00, -1.00, 436.7, 2.0)"> </text><text xml:space="preserve" font-family="DINCondensed-Bold,DIN Condensed" font-weight="bold" font-size="80.0" fill="#FEFFFE" transform="matrix(1.00, 0.00, -0.00, -1.00, 451.6, 2.0)">W</text><text xml:space="preserve" font-family="DINCondensed-Bold,DIN Condensed" font-weight="bold" font-size="80.0" fill="#FEFFFE" transform="matrix(1.00, 0.00, -0.00, -1.00, 498.0, 2.0)">O</text><text xml:space="preserve" font-family="DINCondensed-Bold,DIN Condensed" font-weight="bold" font-size="80.0" fill="#FEFFFE" transform="matrix(1.00, 0.00, -0.00, -1.00, 532.1, 2.0)">R</text><text xml:space="preserve" font-family="DINCondensed-Bold,DIN Condensed" font-weight="bold" font-size="80.0" fill="#FEFFFE" transform="matrix(1.00, 0.00, -0.00, -1.00, 566.2, 2.0)">K</text><text xml:space="preserve" font-family="DINCondensed-Bold,DIN Condensed" font-weight="bold" font-size="80.0" fill="#FEFFFE" transform="matrix(1.00, 0.00, -0.00, -1.00, 600.3, 2.0)">S</text></g></svg>