<?xml version="1.0" encoding="UTF-8" standalone="no"?><svg xmlns="http://www.w3.org/2000/svg" xmlns:xlink="http://www.w3.org/1999/xlink" clip-rule="evenodd" stroke-miterlimit="10" viewBox="0 0 379 19"><desc>SVG generated by Keynote</desc><defs></defs><g transform="matrix(1.00, 0.00, -0.00, -1.00, 0.0, 19.0)"><text xml:space="preserve" font-family="Helvetica-Light,Helvetica" font-size="16.0" fill="#FEFFFE" transform="matrix(1.00, 0.00, -0.00, -1.00, 0.9, 5.5)">h</text><text xml:space="preserve" font-family="Helvetica-Light,Helvetica" font-size="16.0" fill="#FEFFFE" transform="matrix(1.00, 0.00, -0.00, -1.00, 9.8, 5.5)">t</text><text xml:space="preserve" font-family="Helvetica-Light,Helvetica" font-size="16.0" fill="#FEFFFE" transform="matrix(1.00, 0.00, -0.00, -1.00, 14.3, 5.5)">t</text><text xml:space="preserve" font-family="Helvetica-Light,Helvetica" font-size="16.0" fill="#FEFFFE" transform="matrix(1.00, 0.00, -0.00, -1.00, 18.7, 5.5)">p</text><text xml:space="preserve" font-family="Helvetica-Light,Helvetica" font-size="16.0" fill="#FEFFFE" transform="matrix(1.00, 0.00, -0.00, -1.00, 28.5, 5.5)">:</text><text xml:space="preserve" font-family="Helvetica-Light,Helvetica" font-size="16.0" fill="#FEFFFE" transform="matrix(1.00, 0.00, -0.00, -1.00, 32.9, 5.5)">/</text><text xml:space="preserve" font-family="Helvetica-Light,Helvetica" font-size="16.0" fill="#FEFFFE" transform="matrix(1.00, 0.00, -0.00, -1.00, 37.4, 5.5)">/</text><text xml:space="preserve" font-family="Helvetica-Light,Helvetica" font-size="16.0" fill="#FEFFFE" transform="matrix(1.00, 0.00, -0.00, -1.00, 41.8, 5.5)">e</text><text xml:space="preserve" font-family="Helvetica-Light,Helvetica" font-size="16.0" fill="#FEFFFE" transform="matrix(1.00, 0.00, -0.00, -1.00, 50.7, 5.5)">n</text><text xml:space="preserve" font-family="Helvetica-Light,Helvetica" font-size="16.0" fill="#FEFFFE" transform="matrix(1.00, 0.00, -0.00, -1.00, 59.6, 5.5)">.</text><text xml:space="preserve" font-family="Helvetica-Light,Helvetica" font-size="16.0" fill="#FEFFFE" transform="matrix(1.00, 0.00, -0.00, -1.00, 64.1, 5.5)">w</text><text xml:space="preserve" font-family="Helvetica-Light,Helvetica" font-size="16.0" fill="#FEFFFE" transform="matrix(1.00, 0.00, -0.00, -1.00, 75.6, 5.5)">i</text><text xml:space="preserve" font-family="Helvetica-Light,Helvetica" font-size="16.0" fill="#FEFFFE" transform="matrix(1.00, 0.00, -0.00, -1.00, 79.2, 5.5)">k</text><text xml:space="preserve" font-family="Helvetica-Light,Helvetica" font-size="16.0" fill="#FEFFFE" transform="matrix(1.00, 0.00, -0.00, -1.00, 87.2, 5.5)">i</text><text xml:space="preserve" font-family="Helvetica-Light,Helvetica" font-size="16.0" fill="#FEFFFE" transform="matrix(1.00, 0.00, -0.00, -1.00, 90.7, 5.5)">p</text><text xml:space="preserve" font-family="Helvetica-Light,Helvetica" font-size="16.0" fill="#FEFFFE" transform="matrix(1.00, 0.00, -0.00, -1.00, 100.5, 5.5)">e</text><text xml:space="preserve" font-family="Helvetica-Light,Helvetica" font-size="16.0" fill="#FEFFFE" transform="matrix(1.00, 0.00, -0.00, -1.00, 109.4, 5.5)">d</text><text xml:space="preserve" font-family="Helvetica-Light,Helvetica" font-size="16.0" fill="#FEFFFE" transform="matrix(1.00, 0.00, -0.00, -1.00, 119.2, 5.5)">i</text><text xml:space="preserve" font-family="Helvetica-Light,Helvetica" font-size="16.0" fill="#FEFFFE" transform="matrix(1.00, 0.00, -0.00, -1.00, 122.7, 5.5)">a</text><text xml:space="preserve" font-family="Helvetica-Light,Helvetica" font-size="16.0" fill="#FEFFFE" transform="matrix(1.00, 0.00, -0.00, -1.00, 131.6, 5.5)">.</text><text xml:space="preserve" font-family="Helvetica-Light,Helvetica" font-size="16.0" fill="#FEFFFE" transform="matrix(1.00, 0.00, -0.00, -1.00, 136.1, 5.5)">o</text><text xml:space="preserve" font-family="Helvetica-Light,Helvetica" font-size="16.0" fill="#FEFFFE" transform="matrix(1.00, 0.00, -0.00, -1.00, 145.0, 5.5)">r</text><text xml:space="preserve" font-family="Helvetica-Light,Helvetica" font-size="16.0" fill="#FEFFFE" transform="matrix(1.00, 0.00, -0.00, -1.00, 150.3, 5.5)">g</text><text xml:space="preserve" font-family="Helvetica-Light,Helvetica" font-size="16.0" fill="#FEFFFE" transform="matrix(1.00, 0.00, -0.00, -1.00, 160.1, 5.5)">/</text><text xml:space="preserve" font-family="Helvetica-Light,Helvetica" font-size="16.0" fill="#FEFFFE" transform="matrix(1.00, 0.00, -0.00, -1.00, 164.5, 5.5)">w</text><text xml:space="preserve" font-family="Helvetica-Light,Helvetica" font-size="16.0" fill="#FEFFFE" transform="matrix(1.00, 0.00, -0.00, -1.00, 176.1, 5.5)">i</text><text xml:space="preserve" font-family="Helvetica-Light,Helvetica" font-size="16.0" fill="#FEFFFE" transform="matrix(1.00, 0.00, -0.00, -1.00, 179.6, 5.5)">k</text><text xml:space="preserve" font-family="Helvetica-Light,Helvetica" font-size="16.0" fill="#FEFFFE" transform="matrix(1.00, 0.00, -0.00, -1.00, 187.6, 5.5)">i</text><text xml:space="preserve" font-family="Helvetica-Light,Helvetica" font-size="16.0" fill="#FEFFFE" transform="matrix(1.00, 0.00, -0.00, -1.00, 191.2, 5.5)">/</text><text xml:space="preserve" font-family="Helvetica-Light,Helvetica" font-size="16.0" fill="#FEFFFE" transform="matrix(1.00, 0.00, -0.00, -1.00, 195.6, 5.5)">L</text><text xml:space="preserve" font-family="Helvetica-Light,Helvetica" font-size="16.0" fill="#FEFFFE" transform="matrix(1.00, 0.00, -0.00, -1.00, 204.5, 5.5)">i</text><text xml:space="preserve" font-family="Helvetica-Light,Helvetica" font-size="16.0" fill="#FEFFFE" transform="matrix(1.00, 0.00, -0.00, -1.00, 208.1, 5.5)">s</text><text xml:space="preserve" font-family="Helvetica-Light,Helvetica" font-size="16.0" fill="#FEFFFE" transform="matrix(1.00, 0.00, -0.00, -1.00, 216.1, 5.5)">t</text><text xml:space="preserve" font-family="Helvetica-Light,Helvetica" font-size="16.0" fill="#FEFFFE" transform="matrix(1.00, 0.00, -0.00, -1.00, 220.5, 5.5)">_</text><text xml:space="preserve" font-family="Helvetica-Light,Helvetica" font-size="16.0" fill="#FEFFFE" transform="matrix(1.00, 0.00, -0.00, -1.00, 228.5, 5.5)">o</text><text xml:space="preserve" font-family="Helvetica-Light,Helvetica" font-size="16.0" fill="#FEFFFE" transform="matrix(1.00, 0.00, -0.00, -1.00, 237.4, 5.5)">f</text><text xml:space="preserve" font-family="Helvetica-Light,Helvetica" font-size="16.0" fill="#FEFFFE" transform="matrix(1.00, 0.00, -0.00, -1.00, 241.9, 5.5)">_</text><text xml:space="preserve" font-family="Helvetica-Light,Helvetica" font-size="16.0" fill="#FEFFFE" transform="matrix(1.00, 0.00, -0.00, -1.00, 249.9, 5.5)">P</text><text xml:space="preserve" font-family="Helvetica-Light,Helvetica" font-size="16.0" fill="#FEFFFE" transform="matrix(1.00, 0.00, -0.00, -1.00, 259.6, 5.5)">H</text><text xml:space="preserve" font-family="Helvetica-Light,Helvetica" font-size="16.0" fill="#FEFFFE" transform="matrix(1.00, 0.00, -0.00, -1.00, 271.2, 5.5)">P</text><text xml:space="preserve" font-family="Helvetica-Light,Helvetica" font-size="16.0" fill="#FEFFFE" transform="matrix(1.00, 0.00, -0.00, -1.00, 281.0, 5.5)">_</text><text xml:space="preserve" font-family="Helvetica-Light,Helvetica" font-size="16.0" fill="#FEFFFE" transform="matrix(1.00, 0.00, -0.00, -1.00, 289.0, 5.5)">a</text><text xml:space="preserve" font-family="Helvetica-Light,Helvetica" font-size="16.0" fill="#FEFFFE" transform="matrix(1.00, 0.00, -0.00, -1.00, 297.9, 5.5)">c</text><text xml:space="preserve" font-family="Helvetica-Light,Helvetica" font-size="16.0" fill="#FEFFFE" transform="matrix(1.00, 0.00, -0.00, -1.00, 306.8, 5.5)">c</text><text xml:space="preserve" font-family="Helvetica-Light,Helvetica" font-size="16.0" fill="#FEFFFE" transform="matrix(1.00, 0.00, -0.00, -1.00, 315.7, 5.5)">e</text><text xml:space="preserve" font-family="Helvetica-Light,Helvetica" font-size="16.0" fill="#FEFFFE" transform="matrix(1.00, 0.00, -0.00, -1.00, 324.6, 5.5)">l</text><text xml:space="preserve" font-family="Helvetica-Light,Helvetica" font-size="16.0" fill="#FEFFFE" transform="matrix(1.00, 0.00, -0.00, -1.00, 328.1, 5.5)">e</text><text xml:space="preserve" font-family="Helvetica-Light,Helvetica" font-size="16.0" fill="#FEFFFE" transform="matrix(1.00, 0.00, -0.00, -1.00, 337.0, 5.5)">r</text><text xml:space="preserve" font-family="Helvetica-Light,Helvetica" font-size="16.0" fill="#FEFFFE" transform="matrix(1.00, 0.00, -0.00, -1.00, 342.3, 5.5)">a</text><text xml:space="preserve" font-family="Helvetica-Light,Helvetica" font-size="16.0" fill="#FEFFFE" transform="matrix(1.00, 0.00, -0.00, -1.00, 351.2, 5.5)">t</text><text xml:space="preserve" font-family="Helvetica-Light,Helvetica" font-size="16.0" fill="#FEFFFE" transform="matrix(1.00, 0.00, -0.00, -1.00, 355.7, 5.5)">o</text><text xml:space="preserve" font-family="Helvetica-Light,Helvetica" font-size="16.0" fill="#FEFFFE" transform="matrix(1.00, 0.00, -0.00, -1.00, 364.6, 5.5)">r</text><text xml:space="preserve" font-family="Helvetica-Light,Helvetica" font-size="16.0" fill="#FEFFFE" transform="matrix(1.00, 0.00, -0.00, -1.00, 369.9, 5.5)">s</text></g></svg>