<?xml version="1.0" encoding="UTF-8" standalone="no"?><svg xmlns="http://www.w3.org/2000/svg" xmlns:xlink="http://www.w3.org/1999/xlink" clip-rule="evenodd" stroke-miterlimit="10" viewBox="0 0 652 69"><desc>SVG generated by Keynote</desc><defs></defs><g transform="matrix(1.00, 0.00, -0.00, -1.00, 0.0, 69.0)"><text xml:space="preserve" font-family="Helvetica-Light,Helvetica" font-size="30.0" fill="#6FBF40" transform="matrix(1.00, 0.00, -0.00, -1.00, -0.3, 44.2)">F</text><text xml:space="preserve" font-family="Helvetica-Light,Helvetica" font-size="30.0" fill="#6FBF40" transform="matrix(1.00, 0.00, -0.00, -1.00, 16.4, 44.2)">o</text><text xml:space="preserve" font-family="Helvetica-Light,Helvetica" font-size="30.0" fill="#6FBF40" transform="matrix(1.00, 0.00, -0.00, -1.00, 33.1, 44.2)">l</text><text xml:space="preserve" font-family="Helvetica-Light,Helvetica" font-size="30.0" fill="#6FBF40" transform="matrix(1.00, 0.00, -0.00, -1.00, 39.7, 44.2)">l</text><text xml:space="preserve" font-family="Helvetica-Light,Helvetica" font-size="30.0" fill="#6FBF40" transform="matrix(1.00, 0.00, -0.00, -1.00, 46.4, 44.2)">o</text><text xml:space="preserve" font-family="Helvetica-Light,Helvetica" font-size="30.0" fill="#6FBF40" transform="matrix(1.00, 0.00, -0.00, -1.00, 63.1, 44.2)">w</text><text xml:space="preserve" font-family="Helvetica-Light,Helvetica" font-size="30.0" fill="#6FBF40" transform="matrix(1.00, 0.00, -0.00, -1.00, 84.7, 44.2)"> </text><text xml:space="preserve" font-family="Helvetica-Light,Helvetica" font-size="30.0" fill="#6FBF40" transform="matrix(1.00, 0.00, -0.00, -1.00, 93.1, 44.2)">t</text><text xml:space="preserve" font-family="Helvetica-Light,Helvetica" font-size="30.0" fill="#6FBF40" transform="matrix(1.00, 0.00, -0.00, -1.00, 101.4, 44.2)">h</text><text xml:space="preserve" font-family="Helvetica-Light,Helvetica" font-size="30.0" fill="#6FBF40" transform="matrix(1.00, 0.00, -0.00, -1.00, 118.1, 44.2)">e</text><text xml:space="preserve" font-family="Helvetica-Light,Helvetica" font-size="30.0" fill="#6FBF40" transform="matrix(1.00, 0.00, -0.00, -1.00, 134.8, 44.2)"> </text><text xml:space="preserve" font-family="Helvetica-Light,Helvetica" font-size="30.0" fill="#6FBF40" transform="matrix(1.00, 0.00, -0.00, -1.00, 143.1, 44.2)">c</text><text xml:space="preserve" font-family="Helvetica-Light,Helvetica" font-size="30.0" fill="#6FBF40" transform="matrix(1.00, 0.00, -0.00, -1.00, 159.8, 44.2)">o</text><text xml:space="preserve" font-family="Helvetica-Light,Helvetica" font-size="30.0" fill="#6FBF40" transform="matrix(1.00, 0.00, -0.00, -1.00, 176.5, 44.2)">n</text><text xml:space="preserve" font-family="Helvetica-Light,Helvetica" font-size="30.0" fill="#6FBF40" transform="matrix(1.00, 0.00, -0.00, -1.00, 193.2, 44.2)">ï¬</text><text xml:space="preserve" font-family="Helvetica-Light,Helvetica" font-size="30.0" fill="#6FBF40" transform="matrix(1.00, 0.00, -0.00, -1.00, 208.2, 44.2)">g</text><text xml:space="preserve" font-family="Helvetica-Light,Helvetica" font-size="30.0" fill="#6FBF40" transform="matrix(1.00, 0.00, -0.00, -1.00, 226.5, 44.2)">u</text><text xml:space="preserve" font-family="Helvetica-Light,Helvetica" font-size="30.0" fill="#6FBF40" transform="matrix(1.00, 0.00, -0.00, -1.00, 243.2, 44.2)">r</text><text xml:space="preserve" font-family="Helvetica-Light,Helvetica" font-size="30.0" fill="#6FBF40" transform="matrix(1.00, 0.00, -0.00, -1.00, 253.2, 44.2)">a</text><text xml:space="preserve" font-family="Helvetica-Light,Helvetica" font-size="30.0" fill="#6FBF40" transform="matrix(1.00, 0.00, -0.00, -1.00, 269.8, 44.2)">t</text><text xml:space="preserve" font-family="Helvetica-Light,Helvetica" font-size="30.0" fill="#6FBF40" transform="matrix(1.00, 0.00, -0.00, -1.00, 278.2, 44.2)">i</text><text xml:space="preserve" font-family="Helvetica-Light,Helvetica" font-size="30.0" fill="#6FBF40" transform="matrix(1.00, 0.00, -0.00, -1.00, 284.8, 44.2)">o</text><text xml:space="preserve" font-family="Helvetica-Light,Helvetica" font-size="30.0" fill="#6FBF40" transform="matrix(1.00, 0.00, -0.00, -1.00, 301.5, 44.2)">n</text><text xml:space="preserve" font-family="Helvetica-Light,Helvetica" font-size="30.0" fill="#6FBF40" transform="matrix(1.00, 0.00, -0.00, -1.00, 318.2, 44.2)">s</text><text xml:space="preserve" font-family="Helvetica-Light,Helvetica" font-size="30.0" fill="#6FBF40" transform="matrix(1.00, 0.00, -0.00, -1.00, 333.2, 44.2)"> </text><text xml:space="preserve" font-family="Helvetica-Light,Helvetica" font-size="30.0" fill="#6FBF40" transform="matrix(1.00, 0.00, -0.00, -1.00, 341.5, 44.2)">f</text><text xml:space="preserve" font-family="Helvetica-Light,Helvetica" font-size="30.0" fill="#6FBF40" transform="matrix(1.00, 0.00, -0.00, -1.00, 349.9, 44.2)">r</text><text xml:space="preserve" font-family="Helvetica-Light,Helvetica" font-size="30.0" fill="#6FBF40" transform="matrix(1.00, 0.00, -0.00, -1.00, 359.3, 44.2)">o</text><text xml:space="preserve" font-family="Helvetica-Light,Helvetica" font-size="30.0" fill="#6FBF40" transform="matrix(1.00, 0.00, -0.00, -1.00, 376.0, 44.2)">m</text><text xml:space="preserve" font-family="Helvetica-Light,Helvetica" font-size="30.0" fill="#6FBF40" transform="matrix(1.00, 0.00, -0.00, -1.00, 401.0, 44.2)"> </text><text xml:space="preserve" font-family="Helvetica-Light,Helvetica" font-size="30.0" fill="#6FBF40" transform="matrix(1.00, 0.00, -0.00, -1.00, 409.3, 44.2)">W</text><text xml:space="preserve" font-family="Helvetica-Light,Helvetica" font-size="30.0" fill="#6FBF40" transform="matrix(1.00, 0.00, -0.00, -1.00, 435.5, 44.2)">o</text><text xml:space="preserve" font-family="Helvetica-Light,Helvetica" font-size="30.0" fill="#6FBF40" transform="matrix(1.00, 0.00, -0.00, -1.00, 452.2, 44.2)">o</text><text xml:space="preserve" font-family="Helvetica-Light,Helvetica" font-size="30.0" fill="#6FBF40" transform="matrix(1.00, 0.00, -0.00, -1.00, 468.8, 44.2)">C</text><text xml:space="preserve" font-family="Helvetica-Light,Helvetica" font-size="30.0" fill="#6FBF40" transform="matrix(1.00, 0.00, -0.00, -1.00, 490.5, 44.2)">o</text><text xml:space="preserve" font-family="Helvetica-Light,Helvetica" font-size="30.0" fill="#6FBF40" transform="matrix(1.00, 0.00, -0.00, -1.00, 507.2, 44.2)">m</text><text xml:space="preserve" font-family="Helvetica-Light,Helvetica" font-size="30.0" fill="#6FBF40" transform="matrix(1.00, 0.00, -0.00, -1.00, 532.2, 44.2)">m</text><text xml:space="preserve" font-family="Helvetica-Light,Helvetica" font-size="30.0" fill="#6FBF40" transform="matrix(1.00, 0.00, -0.00, -1.00, 557.2, 44.2)">e</text><text xml:space="preserve" font-family="Helvetica-Light,Helvetica" font-size="30.0" fill="#6FBF40" transform="matrix(1.00, 0.00, -0.00, -1.00, 573.8, 44.2)">r</text><text xml:space="preserve" font-family="Helvetica-Light,Helvetica" font-size="30.0" fill="#6FBF40" transform="matrix(1.00, 0.00, -0.00, -1.00, 583.3, 44.2)">c</text><text xml:space="preserve" font-family="Helvetica-Light,Helvetica" font-size="30.0" fill="#6FBF40" transform="matrix(1.00, 0.00, -0.00, -1.00, 600.0, 44.2)">e</text><text xml:space="preserve" font-family="Helvetica-Light,Helvetica" font-size="30.0" fill="#6FBF40" transform="matrix(1.00, 0.00, -0.00, -1.00, 616.6, 44.2)"> </text><text xml:space="preserve" font-family="Helvetica-Light,Helvetica" font-size="30.0" fill="#6FBF40" transform="matrix(1.00, 0.00, -0.00, -1.00, 625.0, 44.2)">t</text><text xml:space="preserve" font-family="Helvetica-Light,Helvetica" font-size="30.0" fill="#6FBF40" transform="matrix(1.00, 0.00, -0.00, -1.00, 633.3, 44.2)">o</text><text xml:space="preserve" font-family="Helvetica-Light,Helvetica" font-size="30.0" fill="#6FBF40" transform="matrix(1.00, 0.00, -0.00, -1.00, 650.0, 44.2)"> </text><text xml:space="preserve" font-family="Helvetica-Light,Helvetica" font-size="30.0" fill="#6FBF40" transform="matrix(1.00, 0.00, -0.00, -1.00, 66.4, 8.2)">e</text><text xml:space="preserve" font-family="Helvetica-Light,Helvetica" font-size="30.0" fill="#6FBF40" transform="matrix(1.00, 0.00, -0.00, -1.00, 83.1, 8.2)">x</text><text xml:space="preserve" font-family="Helvetica-Light,Helvetica" font-size="30.0" fill="#6FBF40" transform="matrix(1.00, 0.00, -0.00, -1.00, 98.1, 8.2)">c</text><text xml:space="preserve" font-family="Helvetica-Light,Helvetica" font-size="30.0" fill="#6FBF40" transform="matrix(1.00, 0.00, -0.00, -1.00, 114.8, 8.2)">l</text><text xml:space="preserve" font-family="Helvetica-Light,Helvetica" font-size="30.0" fill="#6FBF40" transform="matrix(1.00, 0.00, -0.00, -1.00, 121.4, 8.2)">u</text><text xml:space="preserve" font-family="Helvetica-Light,Helvetica" font-size="30.0" fill="#6FBF40" transform="matrix(1.00, 0.00, -0.00, -1.00, 138.1, 8.2)">d</text><text xml:space="preserve" font-family="Helvetica-Light,Helvetica" font-size="30.0" fill="#6FBF40" transform="matrix(1.00, 0.00, -0.00, -1.00, 156.4, 8.2)">e</text><text xml:space="preserve" font-family="Helvetica-Light,Helvetica" font-size="30.0" fill="#6FBF40" transform="matrix(1.00, 0.00, -0.00, -1.00, 173.1, 8.2)"> </text><text xml:space="preserve" font-family="Helvetica-Light,Helvetica" font-size="30.0" fill="#6FBF40" transform="matrix(1.00, 0.00, -0.00, -1.00, 181.5, 8.2)">p</text><text xml:space="preserve" font-family="Helvetica-Light,Helvetica" font-size="30.0" fill="#6FBF40" transform="matrix(1.00, 0.00, -0.00, -1.00, 199.8, 8.2)">a</text><text xml:space="preserve" font-family="Helvetica-Light,Helvetica" font-size="30.0" fill="#6FBF40" transform="matrix(1.00, 0.00, -0.00, -1.00, 216.5, 8.2)">g</text><text xml:space="preserve" font-family="Helvetica-Light,Helvetica" font-size="30.0" fill="#6FBF40" transform="matrix(1.00, 0.00, -0.00, -1.00, 234.8, 8.2)">e</text><text xml:space="preserve" font-family="Helvetica-Light,Helvetica" font-size="30.0" fill="#6FBF40" transform="matrix(1.00, 0.00, -0.00, -1.00, 251.5, 8.2)">s</text><text xml:space="preserve" font-family="Helvetica-Light,Helvetica" font-size="30.0" fill="#6FBF40" transform="matrix(1.00, 0.00, -0.00, -1.00, 266.5, 8.2)"> </text><text xml:space="preserve" font-family="Helvetica-Light,Helvetica" font-size="30.0" fill="#6FBF40" transform="matrix(1.00, 0.00, -0.00, -1.00, 274.8, 8.2)">f</text><text xml:space="preserve" font-family="Helvetica-Light,Helvetica" font-size="30.0" fill="#6FBF40" transform="matrix(1.00, 0.00, -0.00, -1.00, 283.2, 8.2)">r</text><text xml:space="preserve" font-family="Helvetica-Light,Helvetica" font-size="30.0" fill="#6FBF40" transform="matrix(1.00, 0.00, -0.00, -1.00, 292.6, 8.2)">o</text><text xml:space="preserve" font-family="Helvetica-Light,Helvetica" font-size="30.0" fill="#6FBF40" transform="matrix(1.00, 0.00, -0.00, -1.00, 309.3, 8.2)">m</text><text xml:space="preserve" font-family="Helvetica-Light,Helvetica" font-size="30.0" fill="#6FBF40" transform="matrix(1.00, 0.00, -0.00, -1.00, 334.3, 8.2)"> </text><text xml:space="preserve" font-family="Helvetica-Light,Helvetica" font-size="30.0" fill="#6FBF40" transform="matrix(1.00, 0.00, -0.00, -1.00, 342.6, 8.2)">t</text><text xml:space="preserve" font-family="Helvetica-Light,Helvetica" font-size="30.0" fill="#6FBF40" transform="matrix(1.00, 0.00, -0.00, -1.00, 351.0, 8.2)">h</text><text xml:space="preserve" font-family="Helvetica-Light,Helvetica" font-size="30.0" fill="#6FBF40" transform="matrix(1.00, 0.00, -0.00, -1.00, 367.6, 8.2)">e</text><text xml:space="preserve" font-family="Helvetica-Light,Helvetica" font-size="30.0" fill="#6FBF40" transform="matrix(1.00, 0.00, -0.00, -1.00, 384.3, 8.2)"> </text><text xml:space="preserve" font-family="Helvetica-Light,Helvetica" font-size="30.0" fill="#6FBF40" transform="matrix(1.00, 0.00, -0.00, -1.00, 392.7, 8.2)">c</text><text xml:space="preserve" font-family="Helvetica-Light,Helvetica" font-size="30.0" fill="#6FBF40" transform="matrix(1.00, 0.00, -0.00, -1.00, 409.3, 8.2)">a</text><text xml:space="preserve" font-family="Helvetica-Light,Helvetica" font-size="30.0" fill="#6FBF40" transform="matrix(1.00, 0.00, -0.00, -1.00, 426.0, 8.2)">c</text><text xml:space="preserve" font-family="Helvetica-Light,Helvetica" font-size="30.0" fill="#6FBF40" transform="matrix(1.00, 0.00, -0.00, -1.00, 442.7, 8.2)">h</text><text xml:space="preserve" font-family="Helvetica-Light,Helvetica" font-size="30.0" fill="#6FBF40" transform="matrix(1.00, 0.00, -0.00, -1.00, 459.4, 8.2)">e</text><text xml:space="preserve" font-family="Helvetica-Light,Helvetica" font-size="30.0" fill="#6FBF40" transform="matrix(1.00, 0.00, -0.00, -1.00, 476.1, 8.2)">/</text><text xml:space="preserve" font-family="Helvetica-Light,Helvetica" font-size="30.0" fill="#6FBF40" transform="matrix(1.00, 0.00, -0.00, -1.00, 484.4, 8.2)">V</text><text xml:space="preserve" font-family="Helvetica-Light,Helvetica" font-size="30.0" fill="#6FBF40" transform="matrix(1.00, 0.00, -0.00, -1.00, 501.1, 8.2)">a</text><text xml:space="preserve" font-family="Helvetica-Light,Helvetica" font-size="30.0" fill="#6FBF40" transform="matrix(1.00, 0.00, -0.00, -1.00, 517.8, 8.2)">r</text><text xml:space="preserve" font-family="Helvetica-Light,Helvetica" font-size="30.0" fill="#6FBF40" transform="matrix(1.00, 0.00, -0.00, -1.00, 528.3, 8.2)">n</text><text xml:space="preserve" font-family="Helvetica-Light,Helvetica" font-size="30.0" fill="#6FBF40" transform="matrix(1.00, 0.00, -0.00, -1.00, 545.0, 8.2)">i</text><text xml:space="preserve" font-family="Helvetica-Light,Helvetica" font-size="30.0" fill="#6FBF40" transform="matrix(1.00, 0.00, -0.00, -1.00, 551.6, 8.2)">s</text><text xml:space="preserve" font-family="Helvetica-Light,Helvetica" font-size="30.0" fill="#6FBF40" transform="matrix(1.00, 0.00, -0.00, -1.00, 566.6, 8.2)">h</text></g></svg>