<?xml version="1.0" encoding="UTF-8" standalone="no"?><svg xmlns="http://www.w3.org/2000/svg" xmlns:xlink="http://www.w3.org/1999/xlink" clip-rule="evenodd" stroke-miterlimit="10" viewBox="0 0 121 58"><desc>SVG generated by Keynote</desc><defs></defs><g transform="matrix(1.00, 0.00, -0.00, -1.00, 0.0, 58.0)"><text xml:space="preserve" font-family="Helvetica-Bold,Helvetica" font-weight="bold" font-size="20.0" fill="#FEFFFE" transform="matrix(1.00, 0.00, -0.00, -1.00, 14.9, 42.6)">P</text><text xml:space="preserve" font-family="Helvetica-Bold,Helvetica" font-weight="bold" font-size="20.0" fill="#FEFFFE" transform="matrix(1.00, 0.00, -0.00, -1.00, 28.2, 42.6)">H</text><text xml:space="preserve" font-family="Helvetica-Bold,Helvetica" font-weight="bold" font-size="20.0" fill="#FEFFFE" transform="matrix(1.00, 0.00, -0.00, -1.00, 42.7, 42.6)">P</text><text xml:space="preserve" font-family="Helvetica-Bold,Helvetica" font-weight="bold" font-size="20.0" fill="#FEFFFE" transform="matrix(1.00, 0.00, -0.00, -1.00, 56.0, 42.6)">-</text><text xml:space="preserve" font-family="Helvetica-Bold,Helvetica" font-weight="bold" font-size="20.0" fill="#FEFFFE" transform="matrix(1.00, 0.00, -0.00, -1.00, 62.7, 42.6)">F</text><text xml:space="preserve" font-family="Helvetica-Bold,Helvetica" font-weight="bold" font-size="20.0" fill="#FEFFFE" transform="matrix(1.00, 0.00, -0.00, -1.00, 74.9, 42.6)">P</text><text xml:space="preserve" font-family="Helvetica-Bold,Helvetica" font-weight="bold" font-size="20.0" fill="#FEFFFE" transform="matrix(1.00, 0.00, -0.00, -1.00, 88.2, 42.6)">M</text><text xml:space="preserve" font-family="Helvetica-Light,Helvetica" font-size="15.0" fill="#FEFFFE" transform="matrix(1.00, 0.00, -0.00, -1.00, 32.4, 23.4)">F</text><text xml:space="preserve" font-family="Helvetica-Light,Helvetica" font-size="15.0" fill="#FEFFFE" transform="matrix(1.00, 0.00, -0.00, -1.00, 40.7, 23.4)">a</text><text xml:space="preserve" font-family="Helvetica-Light,Helvetica" font-size="15.0" fill="#FEFFFE" transform="matrix(1.00, 0.00, -0.00, -1.00, 49.1, 23.4)">s</text><text xml:space="preserve" font-family="Helvetica-Light,Helvetica" font-size="15.0" fill="#FEFFFE" transform="matrix(1.00, 0.00, -0.00, -1.00, 56.6, 23.4)">t</text><text xml:space="preserve" font-family="Helvetica-Light,Helvetica" font-size="15.0" fill="#FEFFFE" transform="matrix(1.00, 0.00, -0.00, -1.00, 60.7, 23.4)">C</text><text xml:space="preserve" font-family="Helvetica-Light,Helvetica" font-size="15.0" fill="#FEFFFE" transform="matrix(1.00, 0.00, -0.00, -1.00, 71.6, 23.4)">G</text><text xml:space="preserve" font-family="Helvetica-Light,Helvetica" font-size="15.0" fill="#FEFFFE" transform="matrix(1.00, 0.00, -0.00, -1.00, 83.2, 23.4)">I</text><text xml:space="preserve" font-family="Helvetica-Light,Helvetica" font-size="15.0" fill="#FEFFFE" transform="matrix(1.00, 0.00, -0.00, -1.00, 87.4, 23.4)"> </text><text xml:space="preserve" font-family="Helvetica-Light,Helvetica" font-size="15.0" fill="#FEFFFE" transform="matrix(1.00, 0.00, -0.00, -1.00, 0.9, 5.4)">P</text><text xml:space="preserve" font-family="Helvetica-Light,Helvetica" font-size="15.0" fill="#FEFFFE" transform="matrix(1.00, 0.00, -0.00, -1.00, 10.0, 5.4)">r</text><text xml:space="preserve" font-family="Helvetica-Light,Helvetica" font-size="15.0" fill="#FEFFFE" transform="matrix(1.00, 0.00, -0.00, -1.00, 14.7, 5.4)">o</text><text xml:space="preserve" font-family="Helvetica-Light,Helvetica" font-size="15.0" fill="#FEFFFE" transform="matrix(1.00, 0.00, -0.00, -1.00, 23.1, 5.4)">c</text><text xml:space="preserve" font-family="Helvetica-Light,Helvetica" font-size="15.0" fill="#FEFFFE" transform="matrix(1.00, 0.00, -0.00, -1.00, 31.4, 5.4)">e</text><text xml:space="preserve" font-family="Helvetica-Light,Helvetica" font-size="15.0" fill="#FEFFFE" transform="matrix(1.00, 0.00, -0.00, -1.00, 39.8, 5.4)">s</text><text xml:space="preserve" font-family="Helvetica-Light,Helvetica" font-size="15.0" fill="#FEFFFE" transform="matrix(1.00, 0.00, -0.00, -1.00, 47.3, 5.4)">s</text><text xml:space="preserve" font-family="Helvetica-Light,Helvetica" font-size="15.0" fill="#FEFFFE" transform="matrix(1.00, 0.00, -0.00, -1.00, 54.8, 5.4)"> </text><text xml:space="preserve" font-family="Helvetica-Light,Helvetica" font-size="15.0" fill="#FEFFFE" transform="matrix(1.00, 0.00, -0.00, -1.00, 58.9, 5.4)">M</text><text xml:space="preserve" font-family="Helvetica-Light,Helvetica" font-size="15.0" fill="#FEFFFE" transform="matrix(1.00, 0.00, -0.00, -1.00, 71.4, 5.4)">a</text><text xml:space="preserve" font-family="Helvetica-Light,Helvetica" font-size="15.0" fill="#FEFFFE" transform="matrix(1.00, 0.00, -0.00, -1.00, 79.8, 5.4)">n</text><text xml:space="preserve" font-family="Helvetica-Light,Helvetica" font-size="15.0" fill="#FEFFFE" transform="matrix(1.00, 0.00, -0.00, -1.00, 88.1, 5.4)">a</text><text xml:space="preserve" font-family="Helvetica-Light,Helvetica" font-size="15.0" fill="#FEFFFE" transform="matrix(1.00, 0.00, -0.00, -1.00, 96.4, 5.4)">g</text><text xml:space="preserve" font-family="Helvetica-Light,Helvetica" font-size="15.0" fill="#FEFFFE" transform="matrix(1.00, 0.00, -0.00, -1.00, 105.6, 5.4)">e</text><text xml:space="preserve" font-family="Helvetica-Light,Helvetica" font-size="15.0" fill="#FEFFFE" transform="matrix(1.00, 0.00, -0.00, -1.00, 114.0, 5.4)">r</text></g></svg>