<?xml version="1.0" encoding="UTF-8" standalone="no"?><svg xmlns="http://www.w3.org/2000/svg" xmlns:xlink="http://www.w3.org/1999/xlink" clip-rule="evenodd" stroke-miterlimit="10" viewBox="0 0 241 124"><desc>SVG generated by Keynote</desc><defs></defs><g transform="matrix(1.00, 0.00, -0.00, -1.00, 0.0, 124.0)"><g><clipPath id="clip0x6180020b6fe0"><path d="M 2.0 122.0 L 240.0 122.0 L 240.0 1.0 L 2.0 1.0 Z M 1.7 122.3 "></path></clipPath><g clip-path="url(#clip0x6180020b6fe0)"><g><clipPath id="clip0x6180020b8ea0"><path d="M 1.7 1.3 L 239.7 1.3 L 239.7 122.3 L 1.7 122.3 Z M 1.7 1.3 "></path></clipPath><g clip-path="url(#clip0x6180020b8ea0)"><path d="M 229.7 9.3 L 149.7 9.3 L 149.7 112.3 L 215.1 112.3 L 229.7 98.6 Z M 229.7 9.3 " fill="#9999CC"></path><path d="M 214.7 111.3 L 214.7 98.3 L 229.7 98.3 " fill="#FFFFFF"></path><text xml:space="preserve" font-family="MyriadPro-Bold,Myriad Pro" font-weight="bold" font-size="22.7" fill="#FFFFFF" transform="matrix(1.00, 0.00, -0.00, -1.01, 168.7, 49.3)">P</text><text xml:space="preserve" font-family="MyriadPro-Bold,Myriad Pro" font-weight="bold" font-size="22.7" fill="#FFFFFF" transform="matrix(1.00, 0.00, -0.00, -1.01, 181.9, 49.3)">H</text><text xml:space="preserve" font-family="MyriadPro-Bold,Myriad Pro" font-weight="bold" font-size="22.7" fill="#FFFFFF" transform="matrix(1.00, 0.00, -0.00, -1.01, 197.6, 49.3)">P</text><path d="M 0.0 0.0 L 0.0 -3.0 L -3.0 -3.0 " fill="none" stroke="#FFFFFF" stroke-width="2.00" transform="matrix(1.00, 0.00, 0.00, 1.00, 175.7, 91.3)"></path><path d="M 0.0 0.0 L -19.0 0.0 " fill="none" stroke="#FFFFFF" stroke-width="2.00" stroke-dasharray="5.0, 5.0" transform="matrix(1.00, 0.00, 0.00, 1.00, 167.7, 88.3)"></path><path d="M 0.0 0.0 L -3.0 0.0 L -3.0 3.0 " fill="none" stroke="#FFFFFF" stroke-width="2.00" transform="matrix(1.00, 0.00, 0.00, 1.00, 145.7, 88.3)"></path><path d="M 0.0 0.0 L 0.0 18.0 " fill="none" stroke="#FFFFFF" stroke-width="2.00" stroke-dasharray="5.0, 5.0" transform="matrix(1.00, 0.00, 0.00, 1.00, 142.7, 97.3)"></path></g></g></g></g><g><clipPath id="clip0x618001eb18e0"><path d="M 2.0 122.0 L 240.0 122.0 L 240.0 1.0 L 2.0 1.0 Z M 1.7 122.3 "></path></clipPath><g clip-path="url(#clip0x618001eb18e0)"><g><clipPath id="clip0x6180020ba220"><path d="M 1.7 122.3 L 239.7 122.3 L 239.7 1.3 L 1.7 1.3 Z M 1.7 122.3 "></path></clipPath><g clip-path="url(#clip0x6180020ba220)"><g><clipPath id="clip0x618001ebf980"><path d="M 1.7 1.3 L 239.7 1.3 L 239.7 122.3 L 1.7 122.3 Z M 1.7 1.3 "></path></clipPath><g clip-path="url(#clip0x618001ebf980)"><path d="M 0.0 0.0 L 0.0 3.0 L 3.0 3.0 " fill="none" stroke="#FFFFFF" stroke-width="2.00" transform="matrix(1.00, 0.00, 0.00, 1.00, 142.7, 118.3)"></path><path d="M 0.0 0.0 L 19.0 0.0 " fill="none" stroke="#FFFFFF" stroke-width="2.00" stroke-dasharray="5.0, 5.0" transform="matrix(1.00, 0.00, 0.00, 1.00, 150.7, 121.3)"></path><path d="M 0.0 0.0 L 3.0 0.0 L 3.0 -3.0 " fill="none" stroke="#FFFFFF" stroke-width="2.00" transform="matrix(1.00, 0.00, 0.00, 1.00, 172.7, 121.3)"></path></g></g></g></g></g></g><g><clipPath id="clip0x6180020b1220"><path d="M 2.0 122.0 L 240.0 122.0 L 240.0 1.0 L 2.0 1.0 Z M 1.7 122.3 "></path></clipPath><g clip-path="url(#clip0x6180020b1220)"><g><clipPath id="clip0x6180020b2f00"><path d="M 1.7 1.3 L 239.7 1.3 L 239.7 122.3 L 1.7 122.3 Z M 1.7 1.3 "></path></clipPath><g clip-path="url(#clip0x6180020b2f00)"><path d="M 0.0 0.0 L 0.0 -19.0 " fill="none" stroke="#FFFFFF" stroke-width="2.00" stroke-dasharray="5.0, 5.0" transform="matrix(1.00, 0.00, 0.00, 1.00, 175.7, 113.3)"></path></g></g></g></g><g><clipPath id="clip0x6180020b8cc0"><path d="M 2.0 122.0 L 240.0 122.0 L 240.0 1.0 L 2.0 1.0 Z M 1.7 122.3 "></path></clipPath><g clip-path="url(#clip0x6180020b8cc0)"><g><clipPath id="clip0x6180020adfe0"><path d="M 1.7 122.3 L 239.7 122.3 L 239.7 1.3 L 1.7 1.3 Z M 1.7 122.3 "></path></clipPath><g clip-path="url(#clip0x6180020adfe0)"><g><clipPath id="clip0x6180020ba700"><path d="M 1.7 1.3 L 239.7 1.3 L 239.7 122.3 L 1.7 122.3 Z M 1.7 1.3 "></path></clipPath><g clip-path="url(#clip0x6180020ba700)"><path d="M 0.0 0.0 L 0.0 -3.0 L -3.0 -3.0 " fill="none" stroke="#FFFFFF" stroke-width="2.00" transform="matrix(1.00, 0.00, 0.00, 1.00, 238.7, 5.3)"></path><path d="M 0.0 0.0 L -19.0 0.0 " fill="none" stroke="#FFFFFF" stroke-width="2.00" stroke-dasharray="5.0, 5.0" transform="matrix(1.00, 0.00, 0.00, 1.00, 230.7, 2.3)"></path><path d="M 0.0 0.0 L -3.0 0.0 L -3.0 3.0 " fill="none" stroke="#FFFFFF" stroke-width="2.00" transform="matrix(1.00, 0.00, 0.00, 1.00, 208.7, 2.3)"></path></g></g></g></g></g></g><g><clipPath id="clip0x618001eb0680"><path d="M 2.0 122.0 L 240.0 122.0 L 240.0 1.0 L 2.0 1.0 Z M 1.7 122.3 "></path></clipPath><g clip-path="url(#clip0x618001eb0680)"><g><clipPath id="clip0x6180020b3d40"><path d="M 1.7 1.3 L 239.7 1.3 L 239.7 122.3 L 1.7 122.3 Z M 1.7 1.3 "></path></clipPath><g clip-path="url(#clip0x6180020b3d40)"><path d="M 0.0 0.0 L 0.0 19.0 " fill="none" stroke="#FFFFFF" stroke-width="2.00" stroke-dasharray="5.0, 5.0" transform="matrix(1.00, 0.00, 0.00, 1.00, 205.7, 11.3)"></path><path d="M 0.0 0.0 L 0.0 3.0 L 3.0 3.0 " fill="none" stroke="#FFFFFF" stroke-width="2.00" transform="matrix(1.00, 0.00, 0.00, 1.00, 205.7, 32.3)"></path><path d="M 0.0 0.0 L 19.0 0.0 " fill="none" stroke="#FFFFFF" stroke-width="2.00" stroke-dasharray="5.0, 5.0" transform="matrix(1.00, 0.00, 0.00, 1.00, 213.7, 35.3)"></path></g></g></g></g><g><clipPath id="clip0x6180020b9d40"><path d="M 2.0 122.0 L 240.0 122.0 L 240.0 1.0 L 2.0 1.0 Z M 1.7 122.3 "></path></clipPath><g clip-path="url(#clip0x6180020b9d40)"><g><clipPath id="clip0x6180020ad080"><path d="M 1.7 122.3 L 239.7 122.3 L 239.7 1.3 L 1.7 1.3 Z M 1.7 122.3 "></path></clipPath><g clip-path="url(#clip0x6180020ad080)"><g><clipPath id="clip0x6180020b6ec0"><path d="M 1.7 1.3 L 239.7 1.3 L 239.7 122.3 L 1.7 122.3 Z M 1.7 1.3 "></path></clipPath><g clip-path="url(#clip0x6180020b6ec0)"><path d="M 0.0 0.0 L 3.0 0.0 L 3.0 -3.0 " fill="none" stroke="#FFFFFF" stroke-width="2.00" transform="matrix(1.00, 0.00, 0.00, 1.00, 235.7, 35.3)"></path><path d="M 0.0 0.0 L 0.0 -19.0 " fill="none" stroke="#FFFFFF" stroke-width="2.00" stroke-dasharray="5.0, 5.0" transform="matrix(1.00, 0.00, 0.00, 1.00, 238.7, 27.3)"></path></g></g></g></g></g></g><g><clipPath id="clip0x618001eb3740"><path d="M 2.0 122.0 L 240.0 122.0 L 240.0 1.0 L 2.0 1.0 Z M 1.7 122.3 "></path></clipPath><g clip-path="url(#clip0x618001eb3740)"><g><clipPath id="clip0x6180020aac20"><path d="M 1.7 1.3 L 239.7 1.3 L 239.7 122.3 L 1.7 122.3 Z M 1.7 1.3 "></path></clipPath><g clip-path="url(#clip0x6180020aac20)"><path d="M 0.0 0.0 L 0.0 -3.0 L -3.0 -3.0 " fill="none" stroke="#FFFFFF" stroke-width="2.00" transform="matrix(1.00, 0.00, 0.00, 1.00, 156.7, 28.3)"></path><path d="M 0.0 0.0 L -3.0 0.0 L -3.0 3.0 " fill="none" stroke="#FFFFFF" stroke-width="2.00" transform="matrix(1.00, 0.00, 0.00, 1.00, 145.7, 25.3)"></path><path d="M 0.0 0.0 L 0.0 3.0 L 3.0 3.0 " fill="none" stroke="#FFFFFF" stroke-width="2.00" transform="matrix(1.00, 0.00, 0.00, 1.00, 142.7, 36.3)"></path><path d="M 0.0 0.0 L 3.0 0.0 L 3.0 -3.0 " fill="none" stroke="#FFFFFF" stroke-width="2.00" transform="matrix(1.00, 0.00, 0.00, 1.00, 153.7, 39.3)"></path><path d="M 1.7 112.3 L 1.7 9.3 L 82.7 9.3 L 82.7 98.6 L 67.5 112.3 Z M 1.7 112.3 " fill="#8BC53E"></path><text xml:space="preserve" font-family="MyriadPro-Bold,Myriad Pro" font-weight="bold" font-size="22.7" fill="#FFFFFF" transform="matrix(1.00, 0.00, -0.00, -1.01, 13.1, 49.3)">H</text><text xml:space="preserve" font-family="MyriadPro-Bold,Myriad Pro" font-weight="bold" font-size="22.7" fill="#FFFFFF" transform="matrix(1.00, 0.00, -0.00, -1.01, 28.8, 49.3)">T</text><text xml:space="preserve" font-family="MyriadPro-Bold,Myriad Pro" font-weight="bold" font-size="22.7" fill="#FFFFFF" transform="matrix(1.00, 0.00, -0.00, -1.01, 41.2, 49.3)">M</text><text xml:space="preserve" font-family="MyriadPro-Bold,Myriad Pro" font-weight="bold" font-size="22.7" fill="#FFFFFF" transform="matrix(1.00, 0.00, -0.00, -1.01, 60.4, 49.3)">L</text><path d="M 67.7 111.3 L 67.7 98.3 L 82.7 98.3 " fill="#FFFFFF"></path></g></g></g></g></g></svg>