<?xml version="1.0" encoding="UTF-8" standalone="no"?><svg xmlns="http://www.w3.org/2000/svg" xmlns:xlink="http://www.w3.org/1999/xlink" clip-rule="evenodd" stroke-miterlimit="10" viewBox="0 0 259 274"><desc>SVG generated by Keynote</desc><defs><linearGradient id="gradSh2.2" x1="0.0" y1="0.0" x2="1.0" y2="0.0" gradientUnits="userSpaceOnUse" gradientTransform="matrix(-146.77, 175.25, 175.25, 146.77, 209.1, 38.6)"><stop offset="0.00000" stop-color="#000000"></stop><stop offset="0.00147" stop-color="#010101"></stop><stop offset="0.00513" stop-color="#020202"></stop><stop offset="0.00953" stop-color="#040404"></stop><stop offset="0.01320" stop-color="#050505"></stop><stop offset="0.01979" stop-color="#080808"></stop><stop offset="0.02346" stop-color="#090909"></stop><stop offset="0.04106" stop-color="#101010"></stop><stop offset="0.04472" stop-color="#111111"></stop><stop offset="0.08431" stop-color="#202020"></stop><stop offset="0.08724" stop-color="#212121"></stop><stop offset="0.17302" stop-color="#404040"></stop><stop offset="0.17669" stop-color="#414141"></stop><stop offset="0.36877" stop-color="#808080"></stop><stop offset="0.37243" stop-color="#818181"></stop><stop offset="1.00000" stop-color="#FFFFFF"></stop></linearGradient><linearGradient id="gradSh1.3" x1="0.0" y1="0.0" x2="1.0" y2="0.0" gradientUnits="userSpaceOnUse" gradientTransform="matrix(-162.34, 193.84, 193.84, 162.34, 229.3, 55.5)"><stop offset="0.00000" stop-color="#000000"></stop><stop offset="0.00147" stop-color="#000101"></stop><stop offset="0.00513" stop-color="#000202"></stop><stop offset="0.00880" stop-color="#000404"></stop><stop offset="0.01246" stop-color="#000505"></stop><stop offset="0.01906" stop-color="#000808"></stop><stop offset="0.02199" stop-color="#000909"></stop><stop offset="0.03886" stop-color="#001010"></stop><stop offset="0.04179" stop-color="#001111"></stop><stop offset="0.07991" stop-color="#002020"></stop><stop offset="0.08284" stop-color="#002121"></stop><stop offset="0.16422" stop-color="#004040"></stop><stop offset="0.16789" stop-color="#004141"></stop><stop offset="0.35264" stop-color="#008080"></stop><stop offset="0.35630" stop-color="#008181"></stop><stop offset="1.00000" stop-color="#00FFFF"></stop></linearGradient></defs><g transform="matrix(1.00, 0.00, -0.00, -1.00, 0.0, 274.0)"><g><clipPath id="clip0x6100026a4c80"><path d="M 164.3 1.0 L 257.5 79.1 L 95.1 272.9 L 2.0 194.9 Z M 164.3 1.0 "></path></clipPath><g clip-path="url(#clip0x6100026a4c80)"><g><clipPath id="clip0x6100024b68c0"><path d="M 2.0 194.9 L 95.1 272.9 L 257.5 79.1 L 164.3 1.0 Z M 2.0 194.9 "></path></clipPath><g clip-path="url(#clip0x6100024b68c0)"><g opacity="0.50"><g><clipPath id="clip0x6100026a6fc0"><path d="M 189.4 22.0 L 228.9 55.1 L 82.1 230.3 L 42.6 197.3 Z M 189.4 22.0 "></path></clipPath><g clip-path="url(#clip0x6100026a6fc0)"><g><clipPath id="clip0x6100022bf4a0"><path d="M 48.4 190.4 L 214.7 43.3 L 82.1 230.3 Z M 48.4 190.4 "></path></clipPath><g clip-path="url(#clip0x6100022bf4a0)"><g><clipPath id="clip0x6100024bb120"><path d="M 42.0 22.0 L 229.0 22.0 L 229.0 231.0 L 42.0 231.0 Z M 42.0 22.0 "></path></clipPath><g clip-path="url(#clip0x6100024bb120)"><path d="M 42.0 22.0 L 229.0 22.0 L 229.0 231.0 L 42.0 231.0 Z M 42.0 22.0 " fill="url(#gradSh2.2)"></path></g></g></g></g></g></g></g></g></g></g></g><g><clipPath id="clip0x6100026bb2a0"><path d="M 164.3 1.0 L 257.5 79.1 L 95.1 272.9 L 2.0 194.9 Z M 164.3 1.0 "></path></clipPath><g clip-path="url(#clip0x6100026bb2a0)"><g><clipPath id="clip0x6100026bb420"><path d="M 2.0 194.9 L 95.1 272.9 L 257.5 79.1 L 164.3 1.0 Z M 2.0 194.9 "></path></clipPath><g clip-path="url(#clip0x6100026bb420)"><g opacity="0.50"><g><clipPath id="clip0x6100026bb600"><path d="M 214.7 43.3 L 243.9 67.7 L 81.6 261.5 L 52.4 237.1 Z M 214.7 43.3 "></path></clipPath><g clip-path="url(#clip0x6100026bb600)"><g><clipPath id="clip0x6100026bb780"><path d="M 68.4 222.4 L 214.7 43.3 L 81.6 261.5 Z M 68.4 222.4 "></path></clipPath><g clip-path="url(#clip0x6100026bb780)"><g><clipPath id="clip0x6100026bb900"><path d="M 52.0 43.0 L 244.0 43.0 L 244.0 262.0 L 52.0 262.0 Z M 52.0 43.0 "></path></clipPath><g clip-path="url(#clip0x6100026bb900)"><path d="M 52.0 43.0 L 244.0 43.0 L 244.0 262.0 L 52.0 262.0 Z M 52.0 43.0 " fill="url(#gradSh1.3)"></path></g></g></g></g></g></g></g></g></g></g></g><g><clipPath id="clip0x6100028bbc00"><path d="M 164.3 1.0 L 257.5 79.1 L 95.1 272.9 L 2.0 194.9 Z M 164.3 1.0 "></path></clipPath><g clip-path="url(#clip0x6100028bbc00)"><g><clipPath id="clip0x6100028bbd80"><path d="M 2.0 194.9 L 95.1 272.9 L 257.5 79.1 L 164.3 1.0 Z M 2.0 194.9 "></path></clipPath><g clip-path="url(#clip0x6100028bbd80)"><g opacity="0.80"><g><clipPath id="clip0x6100028bbf60"><path d="M 199.1 30.2 L 219.9 47.7 L 116.3 171.4 L 95.4 154.0 Z M 199.1 30.2 "></path></clipPath><g clip-path="url(#clip0x6100028bbf60)"><g><clipPath id="clip0x6100028bc0e0"><path d="M 95.0 30.0 L 220.0 30.0 L 220.0 172.0 L 95.0 172.0 Z M 95.0 30.0 "></path></clipPath><g clip-path="url(#clip0x6100028bc0e0)"><path d="M 214.7 43.3 L 209.0 60.7 L 104.6 161.7 L 188.2 43.2 L 204.3 34.6 Z M 214.7 43.3 " fill="#00DACC"></path></g></g></g></g></g></g></g></g></g><g><clipPath id="clip0x6100028bc320"><path d="M 164.3 1.0 L 257.5 79.1 L 95.1 272.9 L 2.0 194.9 Z M 164.3 1.0 "></path></clipPath><g clip-path="url(#clip0x6100028bc320)"><g><clipPath id="clip0x6100028bc4a0"><path d="M 2.0 194.9 L 95.1 272.9 L 257.5 79.1 L 164.3 1.0 Z M 2.0 194.9 "></path></clipPath><g clip-path="url(#clip0x6100028bc4a0)"><g opacity="0.50"><g><clipPath id="clip0x6100028bc680"><path d="M 199.1 30.2 L 219.9 47.7 L 204.8 65.7 L 184.0 48.3 Z M 199.1 30.2 "></path></clipPath><g clip-path="url(#clip0x6100028bc680)"><g><clipPath id="clip0x6100028bc800"><path d="M 183.0 30.0 L 220.0 30.0 L 220.0 66.0 L 183.0 66.0 Z M 183.0 30.0 "></path></clipPath><g clip-path="url(#clip0x6100028bc800)"><path d="M 204.3 34.6 L 191.5 39.3 L 189.2 52.6 L 199.6 61.4 L 212.3 56.7 L 214.7 43.3 Z M 204.3 34.6 " fill="#E2FFFF"></path></g></g></g></g></g></g></g></g></g><g><clipPath id="clip0x6100028bca40"><path d="M 164.3 1.0 L 257.5 79.1 L 95.1 272.9 L 2.0 194.9 Z M 164.3 1.0 "></path></clipPath><g clip-path="url(#clip0x6100028bca40)"><g><clipPath id="clip0x6100028bcbc0"><path d="M 2.0 194.9 L 95.1 272.9 L 257.5 79.1 L 164.3 1.0 Z M 2.0 194.9 "></path></clipPath><g clip-path="url(#clip0x6100028bcbc0)"><g opacity="0.80"><g><clipPath id="clip0x6100028bcda0"><path d="M 199.1 30.2 L 257.4 79.1 L 233.3 108.0 L 174.9 59.1 Z M 199.1 30.2 "></path></clipPath><g clip-path="url(#clip0x6100028bcda0)"><g><clipPath id="clip0x6100028bcf20"><path d="M 174.0 30.0 L 258.0 30.0 L 258.0 108.0 L 174.0 108.0 Z M 174.0 30.0 "></path></clipPath><g clip-path="url(#clip0x6100028bcf20)"><path d="M 214.7 43.3 L 233.3 108.0 L 191.6 39.2 L 204.3 34.6 Z M 214.7 43.3 " fill="#29ABE1"></path></g></g></g></g></g></g></g></g></g><g><clipPath id="clip0x6100028bd160"><path d="M 164.3 1.0 L 257.5 79.1 L 95.1 272.9 L 2.0 194.9 Z M 164.3 1.0 "></path></clipPath><g clip-path="url(#clip0x6100028bd160)"><g><clipPath id="clip0x6100028bd2e0"><path d="M 2.0 194.9 L 95.1 272.9 L 257.5 79.1 L 164.3 1.0 Z M 2.0 194.9 "></path></clipPath><g clip-path="url(#clip0x6100028bd2e0)"><g opacity="0.80"><g><clipPath id="clip0x6100028bd4c0"><path d="M 204.3 34.6 L 240.4 64.9 L 201.3 111.5 L 165.2 81.3 Z M 204.3 34.6 "></path></clipPath><g clip-path="url(#clip0x6100028bd4c0)"><g><clipPath id="clip0x6100028bd640"><path d="M 165.0 34.0 L 241.0 34.0 L 241.0 112.0 L 165.0 112.0 Z M 165.0 34.0 "></path></clipPath><g clip-path="url(#clip0x6100028bd640)"><path d="M 214.7 43.3 L 201.3 111.5 L 204.3 34.6 Z M 214.7 43.3 " fill="#81FFFF"></path></g></g></g></g></g></g></g></g></g><g><clipPath id="clip0x6100028bd880"><path d="M 164.3 1.0 L 257.5 79.1 L 95.1 272.9 L 2.0 194.9 Z M 164.3 1.0 "></path></clipPath><g clip-path="url(#clip0x6100028bd880)"><g><clipPath id="clip0x6100028bda00"><path d="M 2.0 194.9 L 95.1 272.9 L 257.5 79.1 L 164.3 1.0 Z M 2.0 194.9 "></path></clipPath><g clip-path="url(#clip0x6100028bda00)"><g opacity="0.80"><g><clipPath id="clip0x6100028bdbe0"><path d="M 170.6 6.4 L 214.7 43.3 L 156.9 112.3 L 112.8 75.4 Z M 170.6 6.4 "></path></clipPath><g clip-path="url(#clip0x6100028bdbe0)"><g><clipPath id="clip0x6100028bdd60"><path d="M 112.0 6.0 L 215.0 6.0 L 215.0 113.0 L 112.0 113.0 Z M 112.0 6.0 "></path></clipPath><g clip-path="url(#clip0x6100028bdd60)"><path d="M 214.7 43.3 L 112.8 75.4 L 204.3 34.6 Z M 214.7 43.3 " fill="#F7921E"></path></g></g></g></g></g></g></g></g></g><g><clipPath id="clip0x6100028bdfa0"><path d="M 164.3 1.0 L 257.5 79.1 L 95.1 272.9 L 2.0 194.9 Z M 164.3 1.0 "></path></clipPath><g clip-path="url(#clip0x6100028bdfa0)"><g><clipPath id="clip0x6100028be120"><path d="M 2.0 194.9 L 95.1 272.9 L 257.5 79.1 L 164.3 1.0 Z M 2.0 194.9 "></path></clipPath><g clip-path="url(#clip0x6100028be120)"><g opacity="0.80"><g><clipPath id="clip0x6100028be300"><path d="M 164.3 1.1 L 214.7 43.3 L 181.7 82.8 L 131.2 40.6 Z M 164.3 1.1 "></path></clipPath><g clip-path="url(#clip0x6100028be300)"><g><clipPath id="clip0x6100028be480"><path d="M 131.0 1.0 L 215.0 1.0 L 215.0 83.0 L 131.0 83.0 Z M 131.0 1.0 "></path></clipPath><g clip-path="url(#clip0x6100028be480)"><path d="M 214.7 43.3 L 131.2 40.6 L 204.3 34.6 Z M 214.7 43.3 " fill="#FBED20"></path></g></g></g></g></g></g></g></g></g></g></svg>