<?xml version="1.0" encoding="UTF-8" standalone="no"?><svg xmlns="http://www.w3.org/2000/svg" xmlns:xlink="http://www.w3.org/1999/xlink" clip-rule="evenodd" stroke-miterlimit="10" viewBox="0 0 194 194"><desc>SVG generated by Keynote</desc><defs></defs><g transform="matrix(1.00, 0.00, -0.00, -1.00, 0.0, 194.0)"><g><clipPath id="clip0x6000028be180"><path d="M 1.2 192.8 L 192.8 192.8 L 192.8 1.2 L 1.2 1.2 Z M 1.2 192.8 "></path></clipPath><g clip-path="url(#clip0x6000028be180)"><g><clipPath id="clip0x600002abd1c0"><path d="M 1.2 1.2 L 192.8 1.2 L 192.8 192.8 L 1.2 192.8 Z M 1.2 1.2 "></path></clipPath><g clip-path="url(#clip0x600002abd1c0)"><path d="M 172.6 138.3 C 179.3 126.1 183.2 112.0 183.2 97.0 C 183.2 65.2 165.9 37.5 140.3 22.5 L 166.6 98.6 C 171.6 110.9 173.2 120.7 173.2 129.5 C 173.2 132.7 173.0 135.6 172.6 138.3 M 108.9 137.4 C 114.1 137.7 118.7 138.2 118.7 138.2 C 123.4 138.8 122.8 145.6 118.2 145.3 C 118.2 145.3 104.2 144.2 95.2 144.2 C 86.8 144.2 72.5 145.3 72.5 145.3 C 67.9 145.6 67.3 138.5 72.0 138.2 C 72.0 138.2 76.4 137.7 81.0 137.4 L 94.4 100.6 L 75.6 44.1 L 44.2 137.4 C 49.4 137.7 54.1 138.2 54.1 138.2 C 58.7 138.8 58.2 145.6 53.5 145.3 C 53.5 145.3 39.6 144.2 30.5 144.2 C 28.9 144.2 27.0 144.3 25.0 144.3 C 40.4 167.7 66.9 183.2 97.0 183.2 C 119.4 183.2 139.9 174.6 155.2 160.6 C 154.8 160.6 154.5 160.6 154.1 160.6 C 145.6 160.6 139.6 153.2 139.6 145.3 C 139.6 138.2 143.7 132.2 148.1 125.1 C 151.3 119.4 155.2 112.0 155.2 101.3 C 155.2 94.0 152.3 85.4 148.6 73.5 L 140.0 44.8 Z M 97.0 10.8 C 88.5 10.8 80.4 12.1 72.7 14.3 L 98.5 89.5 L 125.0 16.9 C 125.2 16.5 125.4 16.1 125.6 15.7 C 116.7 12.6 107.0 10.8 97.0 10.8 M 10.8 97.0 C 10.8 109.5 13.5 121.4 18.3 132.1 L 59.4 19.5 C 30.6 33.4 10.8 62.9 10.8 97.0 M 97.0 192.8 C 44.2 192.8 1.2 149.9 1.2 97.0 C 1.2 44.2 44.2 1.2 97.0 1.2 C 149.8 1.2 192.8 44.2 192.8 97.0 C 192.8 149.9 149.8 192.8 97.0 192.8 " fill="#FDFDFD"></path></g></g></g></g></g></svg>